
		<svg xmlns="http://www.w3.org/2000/svg" xmlns:xlink="http://www.w3.org/1999/xlink" version="1.1" width="1428.1368821292776" height="1491.71102661597">
			
			<g transform="scale(11.406844106463879) translate(10, 10)">
				<defs id="SvgjsDefs3503"/><g id="SvgjsG3505" rel="mainfill" name="symbol" feature="symbol" xmlns:name="symbol_mainfill" fill="#45b9bd" transform="translate(-19.105845683906125, -19.8695977870494005) scale(1.3936179275531253)"><title xmlns="http://www.w3.org/2000/svg">majlobv2</title><path xmlns="http://www.w3.org/2000/svg" d="M71.41,57.47c-4.75,0-9.27-3.07-11.77-5.13A2,2,0,0,1,58.93,50c1.69-5,4.13-8.53,7.67-11,5.69-4,17.48-2.5,23.48,2.86a2,2,0,0,1,.67,1,2,2,0,0,1-.83,2.29,2,2,0,0,1-.67.27c-3.85,1.14-5.74,3.49-7.74,6s-4.19,5.2-8.28,5.94A10.38,10.38,0,0,1,71.41,57.47ZM63.17,50c2.21,1.65,6,4,9.37,3.35,2.62-.47,4.06-2.25,5.87-4.51A21.86,21.86,0,0,1,84.72,43c-5.21-2.73-12.64-2.94-15.83-.72A15.94,15.94,0,0,0,63.17,50Z"/><path xmlns="http://www.w3.org/2000/svg" d="M47.51,53.84h-.32c-5.29,0-14.52-.92-19.53-6.78-3.79-4.44-3.75-9.31-3.71-14s.08-9.54-3.45-14.75a2,2,0,0,1,.35-3A2.31,2.31,0,0,1,22,15c11.42-.57,26.23,8.75,28.91,18.17a26,26,0,0,1,1,8.12,2,2,0,0,1-2.08,1.92,2,2,0,0,1-1.92-2.07,21.71,21.71,0,0,0-.82-6.87c-1.92-6.76-12.5-13.88-21.49-15.11C28,24.17,28,28.85,28,33.07c0,4.52-.07,8.1,2.75,11.4,4.22,4.94,13.12,5.42,16.8,5.38a2,2,0,0,1,1.93,1.41,2,2,0,0,1-1.92,2.59Z"/><path xmlns="http://www.w3.org/2000/svg" d="M48.33,82.36a2,2,0,0,1-1.9-2.62c2.26-6.94,2.35-15.32.23-23.58a44.88,44.88,0,0,0-8.81-17.7,2,2,0,0,1,3.06-2.57,48.89,48.89,0,0,1,9.62,19.28c2.3,9,2.19,18.16-.31,25.82A2,2,0,0,1,48.33,82.36Z"/><path xmlns="http://www.w3.org/2000/svg" d="M79.94,92.69a2,2,0,0,1-1.09-.32c-.08,0-.79-.45-5.26-2.75a41.85,41.85,0,0,0-5.82-2.53,62.75,62.75,0,0,0-19.45-3.19H47.6c-11.68,0-22.64,3-30.94,8.45A2,2,0,0,1,14.46,89c9.12-6,21.14-9.27,33.89-9.1A66.78,66.78,0,0,1,69,83.29a45.92,45.92,0,0,1,6.38,2.76c5.16,2.67,5.45,2.85,5.61,3a2,2,0,0,1-1.09,3.68Z"/><path xmlns="http://www.w3.org/2000/svg" d="M54.95,58.09a2,2,0,0,1-1.48-3.34,35.33,35.33,0,0,1,6.28-5.45,32.52,32.52,0,0,1,14.88-5.68,2,2,0,1,1,.4,4,28.92,28.92,0,0,0-13,5,31.35,31.35,0,0,0-5.57,4.83A2,2,0,0,1,54.95,58.09Z"/></g>
			</g>
		</svg>
	
