
		<svg xmlns="http://www.w3.org/2000/svg" xmlns:xlink="http://www.w3.org/1999/xlink" version="1.1" width="3228.1368821292776" height="2851.71102661597">
			
			<g transform="scale(11.406844106463879) translate(10, 10)">
				<defs id="SvgjsDefs3503"/><g id="main_text" rel="mainfill" name="main_text" feature="main_text" xmlns:name="mainText_mainfill" groupName="main_text" fill="#000" transform="translate(-4.282287165390648, 81.59806906582375) scale(5.286777763993313)"><path d="M4.56 18.6 c1.94 0.26 3.72 0.44 3.72 2.64 c0 2.08 -1.64 2.86 -3.36 2.86 l-0.84 0 c-1.76 0 -2.94 -0.9 -3.26 -2.46 c-0.04 -0.18 0.04 -0.3 0.24 -0.3 l0.28 0 c0.12 0 0.22 0.12 0.24 0.32 c0.26 1.22 1.08 1.74 2.52 1.74 l0.78 0 c1.5 0 2.72 -0.46 2.72 -2.16 c0 -1.64 -1.56 -1.8 -3.04 -1.98 c-2 -0.24 -3.56 -0.5 -3.56 -2.7 c0 -1.88 1.28 -2.62 3.22 -2.62 l0.56 0 c1.82 0 3.04 0.8 3.14 2.6 c0 0.2 -0.06 0.32 -0.28 0.32 l-0.18 0 c-0.2 0 -0.28 -0.1 -0.26 -0.3 c-0.08 -1.38 -0.94 -1.96 -2.46 -1.96 l-0.46 0 c-1.6 0 -2.6 0.42 -2.6 1.96 c0 1.66 1.26 1.86 2.88 2.04 z M14.636937499999998 13.92 c2.06 0 3.56 1.22 3.56 3.64 l0 2.84 c0 2.38 -1.5 3.7 -3.56 3.7 l-0.76 0 c-1.58 0 -2.48 -0.62 -2.9 -1.76 l0 5.36 c0 0.2 -0.08 0.3 -0.3 0.3 l-0.08 0 c-0.2 0 -0.3 -0.1 -0.3 -0.3 l0 -13.4 c0 -0.2 0.1 -0.3 0.3 -0.3 l0.08 0 c0.22 0 0.3 0.1 0.3 0.3 l0 1.26 c0.42 -1.14 1.32 -1.64 2.9 -1.64 l0.76 0 z M17.4969375 20.44 l0 -2.74 c0 -2.06 -1 -3.08 -2.88 -3.08 l-0.74 0 c-1.88 0 -2.9 1.02 -2.9 3.08 l0 2.74 c0 1.9 1.02 2.96 2.9 2.96 l0.74 0 c1.88 0 2.88 -1.06 2.88 -2.96 z M25.773875 14.64 c-0.08 0.16 -0.2 0.2 -0.36 0.14 c-0.28 -0.1 -0.58 -0.16 -1.02 -0.16 l-0.22 0 c-1.82 0 -2.84 1.16 -3.18 1.74 l0 7.34 c0 0.2 -0.1 0.3 -0.3 0.3 l-0.08 0 c-0.2 0 -0.3 -0.1 -0.3 -0.3 l0 -9.4 c0 -0.2 0.1 -0.3 0.3 -0.3 l0.08 0 c0.2 0 0.3 0.1 0.3 0.3 l0 1.34 c0.82 -1.2 2 -1.72 3.38 -1.72 c0.4 0 0.86 0.04 1.26 0.14 c0.18 0.06 0.24 0.18 0.18 0.34 z M31.5508125 13.92 c2.08 0 3.58 1.22 3.58 3.64 l0 2.84 c0 2.38 -1.5 3.7 -3.58 3.7 l-0.82 0 c-2.08 0 -3.58 -1.32 -3.58 -3.7 l0 -2.84 c0 -2.42 1.5 -3.64 3.58 -3.64 l0.82 0 z M34.4308125 20.44 l0 -2.74 c0 -2.06 -1 -3.08 -2.88 -3.08 l-0.82 0 c-1.88 0 -2.9 1.02 -2.9 3.08 l0 2.74 c0 1.9 1.02 2.96 2.9 2.96 l0.82 0 c1.88 0 2.88 -1.06 2.88 -2.96 z M40.467749999999995 24.08 c-2.4 0 -3.22 -1.16 -3.22 -3.54 l0 -6.24 c0 -0.2 0.1 -0.3 0.3 -0.3 l0.1 0 c0.2 0 0.3 0.1 0.3 0.3 l0 6.1 c0 1.94 0.36 2.98 2.38 2.98 l0.34 0 c1.82 0 2.84 -1.16 3.18 -1.74 l0 -7.34 c0 -0.2 0.1 -0.3 0.3 -0.3 l0.08 0 c0.2 0 0.3 0.1 0.3 0.3 l0 9.4 c0 0.2 -0.1 0.3 -0.3 0.3 l-0.08 0 c-0.2 0 -0.3 -0.1 -0.3 -0.3 l0 -1.34 c-0.86 1.26 -2.06 1.72 -3.22 1.72 l-0.16 0 z M50.28468749999999 14.7 l-1.76 0 l0 6.14 c0 1.76 0.4 2.48 1.82 2.52 c0.16 0 0.22 0.14 0.24 0.28 l-0.02 0.14 c0.02 0.14 -0.08 0.26 -0.24 0.26 c-1.78 -0.06 -2.48 -1.08 -2.48 -3.16 l0 -6.18 l-1.1 0 c-0.2 0 -0.3 -0.1 -0.3 -0.3 l0 -0.08 c0 -0.22 0.1 -0.32 0.3 -0.32 l1.1 0 l0 -1.14 c0 -0.2 0.1 -0.3 0.3 -0.3 l0.08 0 c0.2 0 0.3 0.1 0.3 0.3 l0 1.14 l1.74 0 c0.22 0 0.32 0.1 0.32 0.3 l0 0.1 c0 0.2 -0.08 0.3 -0.3 0.3 z"/></g><g id="SvgjsG3505" rel="mainfill" name="symbol" feature="symbol" xmlns:name="symbol_mainfill" fill="#45b9bd" transform="translate(59.105845683906125, -5.8695977870494005) scale(1.3936179275531253)"><title xmlns="http://www.w3.org/2000/svg">majlobv2</title><path xmlns="http://www.w3.org/2000/svg" d="M71.41,57.47c-4.75,0-9.27-3.07-11.77-5.13A2,2,0,0,1,58.93,50c1.69-5,4.13-8.53,7.67-11,5.69-4,17.48-2.5,23.48,2.86a2,2,0,0,1,.67,1,2,2,0,0,1-.83,2.29,2,2,0,0,1-.67.27c-3.85,1.14-5.74,3.49-7.74,6s-4.19,5.2-8.28,5.94A10.38,10.38,0,0,1,71.41,57.47ZM63.17,50c2.21,1.65,6,4,9.37,3.35,2.62-.47,4.06-2.25,5.87-4.51A21.86,21.86,0,0,1,84.72,43c-5.21-2.73-12.64-2.94-15.83-.72A15.94,15.94,0,0,0,63.17,50Z"/><path xmlns="http://www.w3.org/2000/svg" d="M47.51,53.84h-.32c-5.29,0-14.52-.92-19.53-6.78-3.79-4.44-3.75-9.31-3.71-14s.08-9.54-3.45-14.75a2,2,0,0,1,.35-3A2.31,2.31,0,0,1,22,15c11.42-.57,26.23,8.75,28.91,18.17a26,26,0,0,1,1,8.12,2,2,0,0,1-2.08,1.92,2,2,0,0,1-1.92-2.07,21.71,21.71,0,0,0-.82-6.87c-1.92-6.76-12.5-13.88-21.49-15.11C28,24.17,28,28.85,28,33.07c0,4.52-.07,8.1,2.75,11.4,4.22,4.94,13.12,5.42,16.8,5.38a2,2,0,0,1,1.93,1.41,2,2,0,0,1-1.92,2.59Z"/><path xmlns="http://www.w3.org/2000/svg" d="M48.33,82.36a2,2,0,0,1-1.9-2.62c2.26-6.94,2.35-15.32.23-23.58a44.88,44.88,0,0,0-8.81-17.7,2,2,0,0,1,3.06-2.57,48.89,48.89,0,0,1,9.62,19.28c2.3,9,2.19,18.16-.31,25.82A2,2,0,0,1,48.33,82.36Z"/><path xmlns="http://www.w3.org/2000/svg" d="M79.94,92.69a2,2,0,0,1-1.09-.32c-.08,0-.79-.45-5.26-2.75a41.85,41.85,0,0,0-5.82-2.53,62.75,62.75,0,0,0-19.45-3.19H47.6c-11.68,0-22.64,3-30.94,8.45A2,2,0,0,1,14.46,89c9.12-6,21.14-9.27,33.89-9.1A66.78,66.78,0,0,1,69,83.29a45.92,45.92,0,0,1,6.38,2.76c5.16,2.67,5.45,2.85,5.61,3a2,2,0,0,1-1.09,3.68Z"/><path xmlns="http://www.w3.org/2000/svg" d="M54.95,58.09a2,2,0,0,1-1.48-3.34,35.33,35.33,0,0,1,6.28-5.45,32.52,32.52,0,0,1,14.88-5.68,2,2,0,1,1,.4,4,28.92,28.92,0,0,0-13,5,31.35,31.35,0,0,0-5.57,4.83A2,2,0,0,1,54.95,58.09Z"/></g>
			</g>
		</svg>
	