
		<svg xmlns="http://www.w3.org/2000/svg"
		xmlns:xlink="http://www.w3.org/1999/xlink" version="1.1"
		width="1328.1368821292776" height="991.71102661597">

			<g transform="scale(7.406844106463879) translate(10, 0)">
			<defs id="SvgjsDefs1061"/><g id="main_text" rel="mainfill"
			name="main_text" feature="main_text"
			xmlns:name="mainText_mainfill" groupName="main_text"
			fill="#eeeeee" transform="translate(-4.282287165390648,
			0) scale(3.286777763993313)"><path d="M4.56
			18.6 c1.94 0.26 3.72 0.44 3.72 2.64 c0 2.08 -1.64 2.86 -3.36
			2.86 l-0.84 0 c-1.76 0 -2.94 -0.9 -3.26 -2.46 c-0.04 -0.18
			0.04 -0.3 0.24 -0.3 l0.28 0 c0.12 0 0.22 0.12 0.24 0.32
			c0.26 1.22 1.08 1.74 2.52 1.74 l0.78 0 c1.5 0 2.72 -0.46
			2.72 -2.16 c0 -1.64 -1.56 -1.8 -3.04 -1.98 c-2 -0.24 -3.56
			-0.5 -3.56 -2.7 c0 -1.88 1.28 -2.62 3.22 -2.62 l0.56 0 c1.82
			0 3.04 0.8 3.14 2.6 c0 0.2 -0.06 0.32 -0.28 0.32 l-0.18 0
			c-0.2 0 -0.28 -0.1 -0.26 -0.3 c-0.08 -1.38 -0.94 -1.96 -2.46
			-1.96 l-0.46 0 c-1.6 0 -2.6 0.42 -2.6 1.96 c0 1.66 1.26 1.86
			2.88 2.04 z M14.636937499999998 13.92 c2.06 0 3.56 1.22 3.56
			3.64 l0 2.84 c0 2.38 -1.5 3.7 -3.56 3.7 l-0.76 0 c-1.58 0
			-2.48 -0.62 -2.9 -1.76 l0 5.36 c0 0.2 -0.08 0.3 -0.3 0.3
			l-0.08 0 c-0.2 0 -0.3 -0.1 -0.3 -0.3 l0 -13.4 c0 -0.2 0.1
			-0.3 0.3 -0.3 l0.08 0 c0.22 0 0.3 0.1 0.3 0.3 l0 1.26 c0.42
			-1.14 1.32 -1.64 2.9 -1.64 l0.76 0 z M17.4969375 20.44 l0
			-2.74 c0 -2.06 -1 -3.08 -2.88 -3.08 l-0.74 0 c-1.88 0 -2.9
			1.02 -2.9 3.08 l0 2.74 c0 1.9 1.02 2.96 2.9 2.96 l0.74 0
			c1.88 0 2.88 -1.06 2.88 -2.96 z M25.773875 14.64 c-0.08 0.16
			-0.2 0.2 -0.36 0.14 c-0.28 -0.1 -0.58 -0.16 -1.02 -0.16
			l-0.22 0 c-1.82 0 -2.84 1.16 -3.18 1.74 l0 7.34 c0 0.2 -0.1
			0.3 -0.3 0.3 l-0.08 0 c-0.2 0 -0.3 -0.1 -0.3 -0.3 l0 -9.4 c0
			-0.2 0.1 -0.3 0.3 -0.3 l0.08 0 c0.2 0 0.3 0.1 0.3 0.3 l0
			1.34 c0.82 -1.2 2 -1.72 3.38 -1.72 c0.4 0 0.86 0.04 1.26
			0.14 c0.18 0.06 0.24 0.18 0.18 0.34 z M31.5508125 13.92
			c2.08 0 3.58 1.22 3.58 3.64 l0 2.84 c0 2.38 -1.5 3.7 -3.58
			3.7 l-0.82 0 c-2.08 0 -3.58 -1.32 -3.58 -3.7 l0 -2.84 c0
			-2.42 1.5 -3.64 3.58 -3.64 l0.82 0 z M34.4308125 20.44 l0
			-2.74 c0 -2.06 -1 -3.08 -2.88 -3.08 l-0.82 0 c-1.88 0 -2.9
			1.02 -2.9 3.08 l0 2.74 c0 1.9 1.02 2.96 2.9 2.96 l0.82 0
			c1.88 0 2.88 -1.06 2.88 -2.96 z M40.467749999999995 24.08
			c-2.4 0 -3.22 -1.16 -3.22 -3.54 l0 -6.24 c0 -0.2 0.1 -0.3
			0.3 -0.3 l0.1 0 c0.2 0 0.3 0.1 0.3 0.3 l0 6.1 c0 1.94 0.36
			2.98 2.38 2.98 l0.34 0 c1.82 0 2.84 -1.16 3.18 -1.74 l0
			-7.34 c0 -0.2 0.1 -0.3 0.3 -0.3 l0.08 0 c0.2 0 0.3 0.1 0.3
			0.3 l0 9.4 c0 0.2 -0.1 0.3 -0.3 0.3 l-0.08 0 c-0.2 0 -0.3
			-0.1 -0.3 -0.3 l0 -1.34 c-0.86 1.26 -2.06 1.72 -3.22 1.72
			l-0.16 0 z M50.28468749999999 14.7 l-1.76 0 l0 6.14 c0 1.76
			0.4 2.48 1.82 2.52 c0.16 0 0.22 0.14 0.24 0.28 l-0.02 0.14
			c0.02 0.14 -0.08 0.26 -0.24 0.26 c-1.78 -0.06 -2.48 -1.08
			-2.48 -3.16 l0 -6.18 l-1.1 0 c-0.2 0 -0.3 -0.1 -0.3 -0.3 l0
			-0.08 c0 -0.22 0.1 -0.32 0.3 -0.32 l1.1 0 l0 -1.14 c0 -0.2
			0.1 -0.3 0.3 -0.3 l0.08 0 c0.2 0 0.3 0.1 0.3 0.3 l0 1.14
			l1.74 0 c0.22 0 0.32 0.1 0.32 0.3 l0 0.1 c0 0.2 -0.08 0.3
			-0.3 0.3 z"/></g> </g> </svg>
